{
	"asset": {
		"generator": "Unity 2018.2.2f1",
		"extras": {
			"exporterVersion" : "2.2.1"
		},
		"version": "2.0"
	},
	"accessors": [
		{
			"bufferView": 2,
			"byteOffset": 0,
			"componentType": 5126,
			"count": 13938,
			"max": [ 2.024847, 0.8337428, 0 ],
			"min": [ -0.6962712, -0.7749768, -2.381214 ],
			"type": "VEC3"
		},
		{
			"bufferView": 2,
			"byteOffset": 167256,
			"componentType": 5126,
			"count": 13938,
			"max": [ 1, 1, 1 ],
			"min": [ -1, -1, -0.9999754 ],
			"type": "VEC3"
		},
		{
			"bufferView": 1,
			"byteOffset": 0,
			"componentType": 5126,
			"count": 13938,
			"max": [ 0.9995578, 0.9972717 ],
			"min": [ 0.004423326, 0.001412942 ],
			"type": "VEC2"
		},
		{
			"bufferView": 1,
			"byteOffset": 111504,
			"componentType": 5126,
			"count": 13938,
			"max": [ 0.9995578, 0.9972717 ],
			"min": [ 0.004423326, 0.001412942 ],
			"type": "VEC2"
		},
		{
			"bufferView": 3,
			"byteOffset": 0,
			"componentType": 5126,
			"count": 13938,
			"max": [ 1, 0.999997, 0.9987203, 1 ],
			"min": [ -1, -0.999997, -1, -1 ],
			"type": "VEC4"
		},
		{
			"bufferView": 0,
			"byteOffset": 0,
			"componentType": 5123,
			"count": 38847,
			"max": [ 13937 ],
			"min": [ 0 ],
			"type": "SCALAR"
		}
	],
	"buffers": [
		{
			"byteLength": 858222,
			"uri": "CH_H_Weilei15458.bin"
		}
	],
	"bufferViews": [
		{
			"buffer": 0,
			"byteLength": 77694,
			"target": 34963,
			"byteOffset": 780528
		},
		{
			"buffer": 0,
			"byteLength": 223008,
			"target": 34962,
			"byteStride": 8,
			"byteOffset": 0
		},
		{
			"buffer": 0,
			"byteLength": 334512,
			"target": 34962,
			"byteStride": 12,
			"byteOffset": 223008
		},
		{
			"buffer": 0,
			"byteLength": 223008,
			"target": 34962,
			"byteStride": 16,
			"byteOffset": 557520
		}
	],
	"images": [
		{
			"uri": "Assets/Decentraland/Sample - 01/Models/CH_H_Weilei 1.jpg"
		}
	],
	"materials": [
		{
			"pbrMetallicRoughness": {
				"baseColorTexture" : {
					"index" : 0,
					"texCoord" : 0
				},
				"baseColorFactor": [1, 1, 1, 1],
				"metallicFactor": 0,
				"roughnessFactor": 0.5
			},
			"emissiveFactor": [0, 0, 0],
			"doubleSided": false,
			"name": "Weilei 1"
		}
	],
	"meshes": [
		{
			"name": "mesh_CH_H_Weilei_14064CH_H_Weilei",
			"primitives": [
				{
					"attributes": {
						"POSITION": 0,
						"NORMAL": 1,
						"TEXCOORD_0": 2,
						"TEXCOORD_1": 3,
						"TANGENT": 4
					},
					"indices": 5,
					"material": 0,
					"mode": 4
				}
			]
		}
	],
	"nodes": [
		{
			"name": "UnityGlTF_root",
			"children": [
				1
			]
		},
		{
			"name": "node_CH_H_Weilei",
			"mesh": 0,
			"matrix": [1, 0, 0, 0, 0, 1, 0, 0, 0, 0, 1, 0, 0, 0, 0, 1]
		}
	],
	"samplers": [
		{
			"magFilter": 9729,
			"minFilter": 9985,
			"wrapS": 10497,
			"wrapT": 10497
		}
	],
	"scenes": [
		{
			"name":"defaultScene",
			"nodes": [
				0
			]
		}
	],
	"scene": 0,
	"textures": [
		{
			"sampler": 0,
			"source": 0
		}
	]
}