{
	"asset": {
		"generator": "Unity 2018.2.2f1",
		"extras": {
			"exporterVersion" : "2.2.1"
		},
		"version": "2.0"
	},
	"accessors": [
		{
			"bufferView": 1,
			"byteOffset": 0,
			"componentType": 5126,
			"count": 1396,
			"max": [ 0.6994779, -5.280384, 0.000187337 ],
			"min": [ -0.5990994, -7.30861, -1.999813 ],
			"type": "VEC3"
		},
		{
			"bufferView": 1,
			"byteOffset": 16752,
			"componentType": 5126,
			"count": 1396,
			"max": [ 1, 1, 1 ],
			"min": [ -1, -1, -1 ],
			"type": "VEC3"
		},
		{
			"bufferView": 2,
			"byteOffset": 0,
			"componentType": 5126,
			"count": 1396,
			"max": [ 1, 0, 0, 1 ],
			"min": [ 1, 0, 0, 1 ],
			"type": "VEC4"
		},
		{
			"bufferView": 0,
			"byteOffset": 0,
			"componentType": 5123,
			"count": 2148,
			"max": [ 665 ],
			"min": [ 0 ],
			"type": "SCALAR"
		},
		{
			"bufferView": 0,
			"byteOffset": 4296,
			"componentType": 5123,
			"count": 810,
			"max": [ 1075 ],
			"min": [ 666 ],
			"type": "SCALAR"
		},
		{
			"bufferView": 0,
			"byteOffset": 5916,
			"componentType": 5123,
			"count": 30,
			"max": [ 1095 ],
			"min": [ 1076 ],
			"type": "SCALAR"
		},
		{
			"bufferView": 0,
			"byteOffset": 5976,
			"componentType": 5123,
			"count": 522,
			"max": [ 1395 ],
			"min": [ 1096 ],
			"type": "SCALAR"
		}
	],
	"buffers": [
		{
			"byteLength": 62860,
			"uri": "Cube_00514512.bin"
		}
	],
	"bufferViews": [
		{
			"buffer": 0,
			"byteLength": 7020,
			"target": 34963,
			"byteOffset": 55840
		},
		{
			"buffer": 0,
			"byteLength": 33504,
			"target": 34962,
			"byteStride": 12,
			"byteOffset": 0
		},
		{
			"buffer": 0,
			"byteLength": 22336,
			"target": 34962,
			"byteStride": 16,
			"byteOffset": 33504
		}
	],
	"materials": [
		{
			"pbrMetallicRoughness": {
				"baseColorFactor": [0.05344529, 0.05344529, 0.05344529, 1],
				"metallicFactor": 0,
				"roughnessFactor": 1
			},
			"emissiveFactor": [0, 0, 0],
			"doubleSided": false,
			"name": "Mouse1"
		},
		{
			"pbrMetallicRoughness": {
				"baseColorFactor": [0.64, 0.0922644, 0.08641838, 1],
				"metallicFactor": 0,
				"roughnessFactor": 1
			},
			"emissiveFactor": [0, 0, 0],
			"doubleSided": false,
			"name": "Red"
		},
		{
			"pbrMetallicRoughness": {
				"baseColorFactor": [0.04679457, 0.64, 0.07846028, 1],
				"metallicFactor": 0,
				"roughnessFactor": 1
			},
			"emissiveFactor": [0, 0, 0],
			"doubleSided": false,
			"name": "Green"
		},
		{
			"pbrMetallicRoughness": {
				"baseColorFactor": [0.08648508, 0.64, 0.64, 1],
				"metallicFactor": 0,
				"roughnessFactor": 1
			},
			"emissiveFactor": [0, 0, 0],
			"doubleSided": false,
			"name": "L_Blue"
		}
	],
	"meshes": [
		{
			"name": "mesh_Cube_005_3524Cube_005",
			"primitives": [
				{
					"attributes": {
						"POSITION": 0,
						"NORMAL": 1,
						"TANGENT": 2
					},
					"indices": 3,
					"material": 0,
					"mode": 4
				},
				{
					"attributes": {
						"POSITION": 0,
						"NORMAL": 1,
						"TANGENT": 2
					},
					"indices": 4,
					"material": 1,
					"mode": 4
				},
				{
					"attributes": {
						"POSITION": 0,
						"NORMAL": 1,
						"TANGENT": 2
					},
					"indices": 5,
					"material": 2,
					"mode": 4
				},
				{
					"attributes": {
						"POSITION": 0,
						"NORMAL": 1,
						"TANGENT": 2
					},
					"indices": 6,
					"material": 3,
					"mode": 4
				}
			]
		}
	],
	"nodes": [
		{
			"name": "UnityGlTF_root",
			"children": [
				1
			]
		},
		{
			"name": "node_Cube_005",
			"mesh": 0,
			"matrix": [1, 0, 0, 0, 0, 1, 0, 0, 0, 0, 1, 0, 0, 0, 0, 1]
		}
	],
	"scenes": [
		{
			"name":"defaultScene",
			"nodes": [
				0
			]
		}
	],
	"scene": 0
}