{
	"asset": {
		"generator": "Unity 2018.2.3f1",
		"extras": {
			"exporterVersion" : "2.2.1"
		},
		"version": "2.0"
	},
	"accessors": [
		{
			"bufferView": 1,
			"byteOffset": 0,
			"componentType": 5126,
			"count": 1752,
			"max": [ 29.22015, 2.110853, 3.837148 ],
			"min": [ -30.54863, -11.76397, -39.4302 ],
			"type": "VEC3"
		},
		{
			"bufferView": 1,
			"byteOffset": 21024,
			"componentType": 5126,
			"count": 1752,
			"max": [ 1, 1, 1 ],
			"min": [ -1, -1, -1 ],
			"type": "VEC3"
		},
		{
			"bufferView": 2,
			"byteOffset": 0,
			"componentType": 5126,
			"count": 1752,
			"max": [ 1, 0, 0, 1 ],
			"min": [ 1, 0, 0, 1 ],
			"type": "VEC4"
		},
		{
			"bufferView": 0,
			"byteOffset": 0,
			"componentType": 5123,
			"count": 3078,
			"max": [ 1299 ],
			"min": [ 0 ],
			"type": "SCALAR"
		},
		{
			"bufferView": 0,
			"byteOffset": 6156,
			"componentType": 5123,
			"count": 18,
			"max": [ 1309 ],
			"min": [ 1300 ],
			"type": "SCALAR"
		},
		{
			"bufferView": 0,
			"byteOffset": 6192,
			"componentType": 5123,
			"count": 1248,
			"max": [ 1727 ],
			"min": [ 1310 ],
			"type": "SCALAR"
		},
		{
			"bufferView": 0,
			"byteOffset": 8688,
			"componentType": 5123,
			"count": 24,
			"max": [ 1739 ],
			"min": [ 1728 ],
			"type": "SCALAR"
		},
		{
			"bufferView": 0,
			"byteOffset": 8736,
			"componentType": 5123,
			"count": 24,
			"max": [ 1751 ],
			"min": [ 1740 ],
			"type": "SCALAR"
		}
	],
	"buffers": [
		{
			"byteLength": 78864,
			"uri": "Cube_0191290656.bin"
		}
	],
	"bufferViews": [
		{
			"buffer": 0,
			"byteLength": 8784,
			"target": 34963,
			"byteOffset": 70080
		},
		{
			"buffer": 0,
			"byteLength": 42048,
			"target": 34962,
			"byteStride": 12,
			"byteOffset": 0
		},
		{
			"buffer": 0,
			"byteLength": 28032,
			"target": 34962,
			"byteStride": 16,
			"byteOffset": 42048
		}
	],
	"materials": [
		{
			"pbrMetallicRoughness": {
				"baseColorFactor": [0.2804448, 0.2804448, 0.2804448, 1],
				"metallicFactor": 0,
				"roughnessFactor": 1
			},
			"emissiveFactor": [0, 0, 0],
			"doubleSided": false,
			"name": "Gray"
		},
		{
			"pbrMetallicRoughness": {
				"baseColorFactor": [0.64, 0.0922644, 0.08641838, 1],
				"metallicFactor": 0,
				"roughnessFactor": 1
			},
			"emissiveFactor": [0, 0, 0],
			"doubleSided": false,
			"name": "Red"
		},
		{
			"pbrMetallicRoughness": {
				"baseColorFactor": [0.05344529, 0.05344529, 0.05344529, 1],
				"metallicFactor": 0,
				"roughnessFactor": 1
			},
			"emissiveFactor": [0, 0, 0],
			"doubleSided": false,
			"name": "Mouse1"
		},
		{
			"pbrMetallicRoughness": {
				"baseColorFactor": [0.06334709, 0.1975201, 0.64, 1],
				"metallicFactor": 0,
				"roughnessFactor": 1
			},
			"emissiveFactor": [0, 0, 0],
			"doubleSided": false,
			"name": "Blue"
		},
		{
			"pbrMetallicRoughness": {
				"baseColorFactor": [0.64, 0.5101318, 0.07149718, 1],
				"metallicFactor": 0,
				"roughnessFactor": 1
			},
			"emissiveFactor": [0, 0, 0],
			"doubleSided": false,
			"name": "Yellow"
		}
	],
	"meshes": [
		{
			"name": "mesh_Cube_019_12094Cube_019",
			"primitives": [
				{
					"attributes": {
						"POSITION": 0,
						"NORMAL": 1,
						"TANGENT": 2
					},
					"indices": 3,
					"material": 0,
					"mode": 4
				},
				{
					"attributes": {
						"POSITION": 0,
						"NORMAL": 1,
						"TANGENT": 2
					},
					"indices": 4,
					"material": 1,
					"mode": 4
				},
				{
					"attributes": {
						"POSITION": 0,
						"NORMAL": 1,
						"TANGENT": 2
					},
					"indices": 5,
					"material": 2,
					"mode": 4
				},
				{
					"attributes": {
						"POSITION": 0,
						"NORMAL": 1,
						"TANGENT": 2
					},
					"indices": 6,
					"material": 3,
					"mode": 4
				},
				{
					"attributes": {
						"POSITION": 0,
						"NORMAL": 1,
						"TANGENT": 2
					},
					"indices": 7,
					"material": 4,
					"mode": 4
				}
			]
		}
	],
	"nodes": [
		{
			"name": "UnityGlTF_root",
			"children": [
				1
			]
		},
		{
			"name": "node_Cube_019",
			"mesh": 0,
			"matrix": [1, 0, 0, 0, 0, 1, 0, 0, 0, 0, 1, 0, 0, 0, 0, 1]
		}
	],
	"scenes": [
		{
			"name":"defaultScene",
			"nodes": [
				0
			]
		}
	],
	"scene": 0
}