{
	"asset": {
		"generator": "Unity 2018.2.2f1",
		"extras": {
			"exporterVersion" : "2.2.1"
		},
		"version": "2.0"
	},
	"accessors": [
		{
			"bufferView": 1,
			"byteOffset": 0,
			"componentType": 5126,
			"count": 1611,
			"max": [ 8.248642, 2.413458, 6.091087 ],
			"min": [ -2.997555, -6.081037, -3.458744 ],
			"type": "VEC3"
		},
		{
			"bufferView": 1,
			"byteOffset": 19332,
			"componentType": 5126,
			"count": 1611,
			"max": [ 0.9972555, 1, 1 ],
			"min": [ -0.999612, -1, -1 ],
			"type": "VEC3"
		},
		{
			"bufferView": 2,
			"byteOffset": 0,
			"componentType": 5126,
			"count": 1611,
			"max": [ 1, 0, 0, 1 ],
			"min": [ 1, 0, 0, 1 ],
			"type": "VEC4"
		},
		{
			"bufferView": 0,
			"byteOffset": 0,
			"componentType": 5123,
			"count": 1542,
			"max": [ 969 ],
			"min": [ 0 ],
			"type": "SCALAR"
		},
		{
			"bufferView": 0,
			"byteOffset": 3084,
			"componentType": 5123,
			"count": 1146,
			"max": [ 1610 ],
			"min": [ 970 ],
			"type": "SCALAR"
		}
	],
	"buffers": [
		{
			"byteLength": 69816,
			"uri": "Cylinder_00214928.bin"
		}
	],
	"bufferViews": [
		{
			"buffer": 0,
			"byteLength": 5376,
			"target": 34963,
			"byteOffset": 64440
		},
		{
			"buffer": 0,
			"byteLength": 38664,
			"target": 34962,
			"byteStride": 12,
			"byteOffset": 0
		},
		{
			"buffer": 0,
			"byteLength": 25776,
			"target": 34962,
			"byteStride": 16,
			"byteOffset": 38664
		}
	],
	"materials": [
		{
			"pbrMetallicRoughness": {
				"baseColorFactor": [0.05344529, 0.05344529, 0.05344529, 1],
				"metallicFactor": 0,
				"roughnessFactor": 1
			},
			"emissiveFactor": [0, 0, 0],
			"doubleSided": false,
			"name": "Mouse1"
		},
		{
			"pbrMetallicRoughness": {
				"baseColorFactor": [0.04679457, 0.64, 0.07846028, 1],
				"metallicFactor": 0,
				"roughnessFactor": 1
			},
			"emissiveFactor": [0, 0, 0],
			"doubleSided": false,
			"name": "Green"
		}
	],
	"meshes": [
		{
			"name": "mesh_Cylinder_002_3548Cylinder_002",
			"primitives": [
				{
					"attributes": {
						"POSITION": 0,
						"NORMAL": 1,
						"TANGENT": 2
					},
					"indices": 3,
					"material": 0,
					"mode": 4
				},
				{
					"attributes": {
						"POSITION": 0,
						"NORMAL": 1,
						"TANGENT": 2
					},
					"indices": 4,
					"material": 1,
					"mode": 4
				}
			]
		}
	],
	"nodes": [
		{
			"name": "UnityGlTF_root",
			"children": [
				1
			]
		},
		{
			"name": "node_Cylinder_002",
			"mesh": 0,
			"matrix": [1, 0, 0, 0, 0, 1, 0, 0, 0, 0, 1, 0, 0, 0, 0, 1]
		}
	],
	"scenes": [
		{
			"name":"defaultScene",
			"nodes": [
				0
			]
		}
	],
	"scene": 0
}