{
	"asset": {
		"generator": "Unity 2018.2.3f1",
		"extras": {
			"exporterVersion" : "2.2.1"
		},
		"version": "2.0"
	},
	"accessors": [
		{
			"bufferView": 2,
			"byteOffset": 0,
			"componentType": 5126,
			"count": 726,
			"max": [ 1.014489, 1.725544, 0.780069 ],
			"min": [ -0.88031, -0.457858, -0.860875 ],
			"type": "VEC3"
		},
		{
			"bufferView": 2,
			"byteOffset": 8712,
			"componentType": 5126,
			"count": 726,
			"max": [ 1, 1, 1 ],
			"min": [ -1, -1, -1 ],
			"type": "VEC3"
		},
		{
			"bufferView": 1,
			"byteOffset": 0,
			"componentType": 5126,
			"count": 726,
			"max": [ 0.9847, 0.9847 ],
			"min": [ 0.0153, 0.0153 ],
			"type": "VEC2"
		},
		{
			"bufferView": 3,
			"byteOffset": 0,
			"componentType": 5126,
			"count": 726,
			"max": [ 1, 1, 1, 1 ],
			"min": [ -1, -1, -1, 1 ],
			"type": "VEC4"
		},
		{
			"bufferView": 0,
			"byteOffset": 0,
			"componentType": 5123,
			"count": 1074,
			"max": [ 725 ],
			"min": [ 0 ],
			"type": "SCALAR"
		}
	],
	"buffers": [
		{
			"byteLength": 36996,
			"uri": "gazebo13130.bin"
		}
	],
	"bufferViews": [
		{
			"buffer": 0,
			"byteLength": 2148,
			"target": 34963,
			"byteOffset": 34848
		},
		{
			"buffer": 0,
			"byteLength": 5808,
			"target": 34962,
			"byteStride": 8,
			"byteOffset": 0
		},
		{
			"buffer": 0,
			"byteLength": 17424,
			"target": 34962,
			"byteStride": 12,
			"byteOffset": 5808
		},
		{
			"buffer": 0,
			"byteLength": 11616,
			"target": 34962,
			"byteStride": 16,
			"byteOffset": 23232
		}
	],
	"images": [
		{
			"uri": "Assets/Decentraland/Sample - 03/gazebo/PUSHILIN_gazebo.jpg"
		}
	],
	"materials": [
		{
			"pbrMetallicRoughness": {
				"baseColorTexture" : {
					"index" : 0,
					"texCoord" : 0
				},
				"baseColorFactor": [0.8, 0.8, 0.8, 1],
				"metallicFactor": 0,
				"roughnessFactor": 1
			},
			"emissiveFactor": [0, 0, 0],
			"doubleSided": false,
			"name": "None"
		}
	],
	"meshes": [
		{
			"name": "mesh_default_11800gazebo",
			"primitives": [
				{
					"attributes": {
						"POSITION": 0,
						"NORMAL": 1,
						"TEXCOORD_0": 2,
						"TANGENT": 3
					},
					"indices": 4,
					"material": 0,
					"mode": 4
				}
			]
		}
	],
	"nodes": [
		{
			"name": "UnityGlTF_root",
			"children": [
				1
			]
		},
		{
			"name": "node_gazebo",
			"mesh": 0,
			"matrix": [1, 0, 0, 0, 0, 1, 0, 0, 0, 0, 1, 0, 0, 0, 0, 1]
		}
	],
	"samplers": [
		{
			"magFilter": 9729,
			"minFilter": 9985,
			"wrapS": 10497,
			"wrapT": 10497
		}
	],
	"scenes": [
		{
			"name":"defaultScene",
			"nodes": [
				0
			]
		}
	],
	"scene": 0,
	"textures": [
		{
			"sampler": 0,
			"source": 0
		}
	]
}