{
	"asset": {
		"generator": "Unity 2018.2.2f1",
		"extras": {
			"exporterVersion" : "2.2.1"
		},
		"version": "2.0"
	},
	"accessors": [
		{
			"bufferView": 2,
			"byteOffset": 0,
			"componentType": 5126,
			"count": 17,
			"max": [ 0.4258504, 0.448005, 0 ],
			"min": [ -0.4258504, -0.448005, -1.270296 ],
			"type": "VEC3"
		},
		{
			"bufferView": 2,
			"byteOffset": 204,
			"componentType": 5126,
			"count": 17,
			"max": [ 0.9481404, 0.9430683, 1 ],
			"min": [ -0.9481404, -0.9430683, -0.3325991 ],
			"type": "VEC3"
		},
		{
			"bufferView": 1,
			"byteOffset": 0,
			"componentType": 5126,
			"count": 17,
			"max": [ 1.024726, 1 ],
			"min": [ 0, 0 ],
			"type": "VEC2"
		},
		{
			"bufferView": 3,
			"byteOffset": 0,
			"componentType": 5126,
			"count": 17,
			"max": [ 1, 1, 0, 1 ],
			"min": [ -1, -1, 0, 1 ],
			"type": "VEC4"
		},
		{
			"bufferView": 0,
			"byteOffset": 0,
			"componentType": 5123,
			"count": 24,
			"max": [ 16 ],
			"min": [ 0 ],
			"type": "SCALAR"
		}
	],
	"buffers": [
		{
			"byteLength": 864,
			"uri": "pyramid01.bin"
		}
	],
	"bufferViews": [
		{
			"buffer": 0,
			"byteLength": 48,
			"target": 34963,
			"byteOffset": 816
		},
		{
			"buffer": 0,
			"byteLength": 136,
			"target": 34962,
			"byteStride": 8,
			"byteOffset": 0
		},
		{
			"buffer": 0,
			"byteLength": 408,
			"target": 34962,
			"byteStride": 12,
			"byteOffset": 136
		},
		{
			"buffer": 0,
			"byteLength": 272,
			"target": 34962,
			"byteStride": 16,
			"byteOffset": 544
		}
	],
	"images": [
		{
			"uri": "Assets/Decentraland/Sample - 01/Materials/dcl_map.jpg"
		}
	],
	"materials": [
		{
			"pbrMetallicRoughness": {
				"baseColorTexture" : {
					"index" : 0,
					"texCoord" : 0
				},
				"baseColorFactor": [1, 0.7068272, 0.2877358, 1],
				"metallicFactor": 0.206,
				"roughnessFactor": 0.186
			},
			"emissiveFactor": [0, 0, 0],
			"doubleSided": false,
			"name": "Rod"
		}
	],
	"meshes": [
		{
			"name": "mesh_Pyramid001_3030pyramid01",
			"primitives": [
				{
					"attributes": {
						"POSITION": 0,
						"NORMAL": 1,
						"TEXCOORD_0": 2,
						"TANGENT": 3
					},
					"indices": 4,
					"material": 0,
					"mode": 4
				}
			]
		}
	],
	"nodes": [
		{
			"name": "UnityGlTF_root",
			"children": [
				1
			]
		},
		{
			"name": "node_pyramid01_-869174",
			"mesh": 0,
			"matrix": [1, 0, 0, 0, 0, -1.192093E-07, 1, 0, 0, -1, -1.192093E-07, 0, -3.5, 0.39, -0.56, 1]
		}
	],
	"samplers": [
		{
			"magFilter": 9729,
			"minFilter": 9985,
			"wrapS": 10497,
			"wrapT": 10497
		}
	],
	"scenes": [
		{
			"name":"defaultScene",
			"nodes": [
				0
			]
		}
	],
	"scene": 0,
	"textures": [
		{
			"sampler": 0,
			"source": 0
		}
	]
}