{
	"asset": {
		"generator": "Unity 2018.2.2f1",
		"extras": {
			"exporterVersion" : "2.2.1"
		},
		"version": "2.0"
	},
	"accessors": [
		{
			"bufferView": 2,
			"byteOffset": 0,
			"componentType": 5126,
			"count": 1520,
			"max": [ 5.531616, 8.681242, 3.279367 ],
			"min": [ -4.241988, -0.003633, -3.092859 ],
			"type": "VEC3"
		},
		{
			"bufferView": 2,
			"byteOffset": 18240,
			"componentType": 5126,
			"count": 1520,
			"max": [ 0.9997523, 0.9987864, 0.9996902 ],
			"min": [ -0.9999765, -0.999952, -0.9994712 ],
			"type": "VEC3"
		},
		{
			"bufferView": 1,
			"byteOffset": 0,
			"componentType": 5126,
			"count": 1520,
			"max": [ 0.8825, 0.877 ],
			"min": [ 0.0759, 0.1286 ],
			"type": "VEC2"
		},
		{
			"bufferView": 3,
			"byteOffset": 0,
			"componentType": 5126,
			"count": 1520,
			"max": [ 0.9993999, 0.999993, 0.9990661, 1 ],
			"min": [ -0.9978276, -0.993849, -0.9975298, 1 ],
			"type": "VEC4"
		},
		{
			"bufferView": 0,
			"byteOffset": 0,
			"componentType": 5123,
			"count": 1524,
			"max": [ 1519 ],
			"min": [ 0 ],
			"type": "SCALAR"
		}
	],
	"buffers": [
		{
			"byteLength": 76008,
			"uri": "tree13288.bin"
		}
	],
	"bufferViews": [
		{
			"buffer": 0,
			"byteLength": 3048,
			"target": 34963,
			"byteOffset": 72960
		},
		{
			"buffer": 0,
			"byteLength": 12160,
			"target": 34962,
			"byteStride": 8,
			"byteOffset": 0
		},
		{
			"buffer": 0,
			"byteLength": 36480,
			"target": 34962,
			"byteStride": 12,
			"byteOffset": 12160
		},
		{
			"buffer": 0,
			"byteLength": 24320,
			"target": 34962,
			"byteStride": 16,
			"byteOffset": 48640
		}
	],
	"images": [
		{
			"uri": "Assets/Decentraland/Sample - 01/Models/Tree/textures/Tree_Green.jpg"
		}
	],
	"materials": [
		{
			"pbrMetallicRoughness": {
				"baseColorTexture" : {
					"index" : 0,
					"texCoord" : 0
				},
				"baseColorFactor": [1, 1, 1, 1],
				"metallicFactor": 0,
				"roughnessFactor": 0.5
			},
			"emissiveFactor": [0, 0, 0],
			"doubleSided": false,
			"name": "Tree"
		}
	],
	"meshes": [
		{
			"name": "mesh_default_2770tree",
			"primitives": [
				{
					"attributes": {
						"POSITION": 0,
						"NORMAL": 1,
						"TEXCOORD_0": 2,
						"TANGENT": 3
					},
					"indices": 4,
					"material": 0,
					"mode": 4
				}
			]
		}
	],
	"nodes": [
		{
			"name": "UnityGlTF_root",
			"children": [
				1
			]
		},
		{
			"name": "node_tree",
			"mesh": 0,
			"matrix": [1, 0, 0, 0, 0, 1, 0, 0, 0, 0, 1, 0, 0, 0, 0, 1]
		}
	],
	"samplers": [
		{
			"magFilter": 9729,
			"minFilter": 9985,
			"wrapS": 10497,
			"wrapT": 10497
		}
	],
	"scenes": [
		{
			"name":"defaultScene",
			"nodes": [
				0
			]
		}
	],
	"scene": 0,
	"textures": [
		{
			"sampler": 0,
			"source": 0
		}
	]
}