{"asset":{"version":"2.0","generator":"babylon.js glTF exporter for 3ds max 2017 v1.2.27","copyright":"2017 (c) BabylonJS"},"extensionsUsed":["KHR_lights"],"scene":0,"scenes":[{"nodes":[0,1,2],"extensions":{"KHR_lights":{"light":0}}}],"nodes":[{"mesh":0,"translation":[6.53216839,0.005,1.65100384],"rotation":[0.0,0.0,0.0,1.0],"scale":[1.0,1.0,1.0],"name":"Pyramid001"},{"mesh":1,"translation":[-6.602375,18.92315,-1.75585079],"rotation":[0.0,0.340608954,0.0,0.940205038],"scale":[1.0,1.0,1.0],"name":"Plane001"},{"translation":[0.0,0.0,0.0],"rotation":[0.0,0.0,0.0,1.0],"scale":[1.0,1.0,1.0],"name":"Default light"}],"meshes":[{"primitives":[{"attributes":{"POSITION":1,"NORMAL":2,"TEXCOORD_0":3},"indices":0}],"name":"Pyramid001"},{"primitives":[{"attributes":{"POSITION":5,"NORMAL":6,"TEXCOORD_0":7},"indices":4}],"name":"Plane001"}],"accessors":[{"bufferView":0,"componentType":5123,"count":24,"type":"SCALAR","name":"accessorIndices"},{"bufferView":1,"componentType":5126,"count":24,"max":[26.1106339,44.99323,27.9039574],"min":[-26.1106339,0.0,-27.9039574],"type":"VEC3","name":"accessorPositions"},{"bufferView":1,"byteOffset":288,"componentType":5126,"count":24,"type":"VEC3","name":"accessorNormals"},{"bufferView":2,"componentType":5126,"count":24,"type":"VEC2","name":"accessorUVs"},{"bufferView":0,"byteOffset":48,"componentType":5123,"count":3,"type":"SCALAR","name":"accessorIndices"},{"bufferView":1,"byteOffset":576,"componentType":5126,"count":3,"max":[-0.954361439,1.54980469,1.24142742],"min":[-14.2223291,1.54980469,-13.3430347],"type":"VEC3","name":"accessorPositions"},{"bufferView":1,"byteOffset":612,"componentType":5126,"count":3,"type":"VEC3","name":"accessorNormals"},{"bufferView":2,"byteOffset":192,"componentType":5126,"count":3,"type":"VEC2","name":"accessorUVs"}],"bufferViews":[{"buffer":0,"byteLength":56,"name":"bufferViewScalar"},{"buffer":0,"byteOffset":56,"byteLength":648,"byteStride":12,"name":"bufferViewFloatVec3"},{"buffer":0,"byteOffset":704,"byteLength":216,"byteStride":8,"name":"bufferViewFloatVec2"}],"buffers":[{"uri":"testscene001.bin","byteLength":920}],"extensions":{"KHR_lights":{"lights":[{"color":[1.0,1.0,1.0],"intensity":1.0,"type":"ambient"}]}}}